<?xml version="1.0" encoding="UTF-8" standalone="no"?>
<!DOCTYPE svg PUBLIC "-//W3C//DTD SVG 1.1//EN"
 "http://www.w3.org/Graphics/SVG/1.1/DTD/svg11.dtd">
<!-- Generated by graphviz version 2.40.1 (20161225.0304)
 -->
<!-- Title: %3 Pages: 1 -->
<svg width="1735pt" height="476pt"
 viewBox="0.00 0.00 1735.42 476.00" xmlns="http://www.w3.org/2000/svg" xmlns:xlink="http://www.w3.org/1999/xlink">
<g id="graph0" class="graph" transform="scale(1 1) rotate(0) translate(4 472)">
<title>%3</title>
<polygon fill="#ffffff" stroke="transparent" points="-4,4 -4,-472 1731.4185,-472 1731.4185,4 -4,4"/>
<!-- [root] data.terraform_remote_state.mgtsubnet -->
<g id="node1" class="node">
<title>[root] data.terraform_remote_state.mgtsubnet</title>
<polygon fill="none" stroke="#000000" points="1727.4327,-180 1491.3761,-180 1491.3761,-144 1727.4327,-144 1727.4327,-180"/>
<text text-anchor="middle" x="1609.4044" y="-157.8" font-family="Times,serif" font-size="14.00" fill="#000000">data.terraform_remote_state.mgtsubnet</text>
</g>
<!-- [root] provider.terraform -->
<g id="node6" class="node">
<title>[root] provider.terraform</title>
<polygon fill="none" stroke="#000000" points="1609.4044,-108 1503.2613,-90 1609.4044,-72 1715.5474,-90 1609.4044,-108"/>
<text text-anchor="middle" x="1609.4044" y="-85.8" font-family="Times,serif" font-size="14.00" fill="#000000">provider.terraform</text>
</g>
<!-- [root] data.terraform_remote_state.mgtsubnet&#45;&gt;[root] provider.terraform -->
<g id="edge1" class="edge">
<title>[root] data.terraform_remote_state.mgtsubnet&#45;&gt;[root] provider.terraform</title>
<path fill="none" stroke="#000000" d="M1609.4044,-143.8314C1609.4044,-136.131 1609.4044,-126.9743 1609.4044,-118.4166"/>
<polygon fill="#000000" stroke="#000000" points="1612.9045,-118.4132 1609.4044,-108.4133 1605.9045,-118.4133 1612.9045,-118.4132"/>
</g>
<!-- [root] oci_core_instance.MesosBootInstance -->
<g id="node2" class="node">
<title>[root] oci_core_instance.MesosBootInstance</title>
<polygon fill="none" stroke="#000000" points="1164.8946,-252 933.9142,-252 933.9142,-216 1164.8946,-216 1164.8946,-252"/>
<text text-anchor="middle" x="1049.4044" y="-229.8" font-family="Times,serif" font-size="14.00" fill="#000000">oci_core_instance.MesosBootInstance</text>
</g>
<!-- [root] oci_core_instance.MesosBootInstance&#45;&gt;[root] data.terraform_remote_state.mgtsubnet -->
<g id="edge10" class="edge">
<title>[root] oci_core_instance.MesosBootInstance&#45;&gt;[root] data.terraform_remote_state.mgtsubnet</title>
<path fill="none" stroke="#000000" d="M1165.255,-220.0857C1249.9422,-209.7886 1367.8731,-195.1898 1480.8917,-180.1912"/>
<polygon fill="#000000" stroke="#000000" points="1481.6591,-183.62 1491.1103,-178.8322 1480.7362,-176.6811 1481.6591,-183.62"/>
</g>
<!-- [root] oci_core_volume.MesosBootBlock -->
<g id="node3" class="node">
<title>[root] oci_core_volume.MesosBootBlock</title>
<polygon fill="none" stroke="#000000" points="519.3185,-180 305.4903,-180 305.4903,-144 519.3185,-144 519.3185,-180"/>
<text text-anchor="middle" x="412.4044" y="-157.8" font-family="Times,serif" font-size="14.00" fill="#000000">oci_core_volume.MesosBootBlock</text>
</g>
<!-- [root] oci_core_instance.MesosBootInstance&#45;&gt;[root] oci_core_volume.MesosBootBlock -->
<g id="edge12" class="edge">
<title>[root] oci_core_instance.MesosBootInstance&#45;&gt;[root] oci_core_volume.MesosBootBlock</title>
<path fill="none" stroke="#000000" d="M933.8431,-223.7154C830.5112,-214.1262 674.7023,-198.7023 529.4974,-180.1081"/>
<polygon fill="#000000" stroke="#000000" points="529.871,-176.6274 519.5058,-178.8214 528.9769,-183.5701 529.871,-176.6274"/>
</g>
<!-- [root] local.ssh_public_key -->
<g id="node9" class="node">
<title>[root] local.ssh_public_key</title>
<ellipse fill="none" stroke="#000000" cx="1366.4044" cy="-162" rx="106.7423" ry="18"/>
<text text-anchor="middle" x="1366.4044" y="-157.8" font-family="Times,serif" font-size="14.00" fill="#000000">[root] local.ssh_public_key</text>
</g>
<!-- [root] oci_core_instance.MesosBootInstance&#45;&gt;[root] local.ssh_public_key -->
<g id="edge11" class="edge">
<title>[root] oci_core_instance.MesosBootInstance&#45;&gt;[root] local.ssh_public_key</title>
<path fill="none" stroke="#000000" d="M1128.9877,-215.9243C1179.2608,-204.5058 1243.7549,-189.8573 1292.8326,-178.7103"/>
<polygon fill="#000000" stroke="#000000" points="1293.7705,-182.0865 1302.7469,-176.4585 1292.22,-175.2604 1293.7705,-182.0865"/>
</g>
<!-- [root] var.BootStrapFile -->
<g id="node16" class="node">
<title>[root] var.BootStrapFile</title>
<ellipse fill="none" stroke="#000000" cx="632.4044" cy="-162" rx="95.1914" ry="18"/>
<text text-anchor="middle" x="632.4044" y="-157.8" font-family="Times,serif" font-size="14.00" fill="#000000">[root] var.BootStrapFile</text>
</g>
<!-- [root] oci_core_instance.MesosBootInstance&#45;&gt;[root] var.BootStrapFile -->
<g id="edge13" class="edge">
<title>[root] oci_core_instance.MesosBootInstance&#45;&gt;[root] var.BootStrapFile</title>
<path fill="none" stroke="#000000" d="M944.7118,-215.9525C883.9011,-205.4659 805.8209,-191.9952 736.4044,-180 728.7234,-178.6727 720.7234,-177.2895 712.7226,-175.9057"/>
<polygon fill="#000000" stroke="#000000" points="713.0619,-172.4125 702.6116,-174.1565 711.8686,-179.31 713.0619,-172.4125"/>
</g>
<!-- [root] var.boot_instance_shape -->
<g id="node17" class="node">
<title>[root] var.boot_instance_shape</title>
<ellipse fill="none" stroke="#000000" cx="864.4044" cy="-162" rx="119.2951" ry="18"/>
<text text-anchor="middle" x="864.4044" y="-157.8" font-family="Times,serif" font-size="14.00" fill="#000000">[root] var.boot_instance_shape</text>
</g>
<!-- [root] oci_core_instance.MesosBootInstance&#45;&gt;[root] var.boot_instance_shape -->
<g id="edge14" class="edge">
<title>[root] oci_core_instance.MesosBootInstance&#45;&gt;[root] var.boot_instance_shape</title>
<path fill="none" stroke="#000000" d="M1002.7211,-215.8314C976.6952,-205.7024 944.1954,-193.0538 917.2396,-182.5629"/>
<polygon fill="#000000" stroke="#000000" points="918.1702,-179.1694 907.5816,-178.8041 915.6313,-185.6928 918.1702,-179.1694"/>
</g>
<!-- [root] var.instance_image_ocid -->
<g id="node18" class="node">
<title>[root] var.instance_image_ocid</title>
<ellipse fill="none" stroke="#000000" cx="1121.4044" cy="-162" rx="120.2468" ry="18"/>
<text text-anchor="middle" x="1121.4044" y="-157.8" font-family="Times,serif" font-size="14.00" fill="#000000">[root] var.instance_image_ocid</text>
</g>
<!-- [root] oci_core_instance.MesosBootInstance&#45;&gt;[root] var.instance_image_ocid -->
<g id="edge15" class="edge">
<title>[root] oci_core_instance.MesosBootInstance&#45;&gt;[root] var.instance_image_ocid</title>
<path fill="none" stroke="#000000" d="M1067.573,-215.8314C1076.2511,-207.1533 1086.7787,-196.6257 1096.2142,-187.1902"/>
<polygon fill="#000000" stroke="#000000" points="1098.8948,-189.4594 1103.491,-179.9134 1093.945,-184.5096 1098.8948,-189.4594"/>
</g>
<!-- [root] provider.oci -->
<g id="node5" class="node">
<title>[root] provider.oci</title>
<polygon fill="none" stroke="#000000" points="739.4044,-108 665.1377,-90 739.4044,-72 813.6711,-90 739.4044,-108"/>
<text text-anchor="middle" x="739.4044" y="-85.8" font-family="Times,serif" font-size="14.00" fill="#000000">provider.oci</text>
</g>
<!-- [root] oci_core_volume.MesosBootBlock&#45;&gt;[root] provider.oci -->
<g id="edge16" class="edge">
<title>[root] oci_core_volume.MesosBootBlock&#45;&gt;[root] provider.oci</title>
<path fill="none" stroke="#000000" d="M494.4982,-143.9243C556.2205,-130.3341 638.7229,-112.1684 690.4618,-100.7764"/>
<polygon fill="#000000" stroke="#000000" points="691.3707,-104.1602 700.3841,-98.5916 689.8654,-97.3239 691.3707,-104.1602"/>
</g>
<!-- [root] var.DiskSize -->
<g id="node19" class="node">
<title>[root] var.DiskSize</title>
<ellipse fill="none" stroke="#000000" cx="77.4044" cy="-90" rx="77.3089" ry="18"/>
<text text-anchor="middle" x="77.4044" y="-85.8" font-family="Times,serif" font-size="14.00" fill="#000000">[root] var.DiskSize</text>
</g>
<!-- [root] oci_core_volume.MesosBootBlock&#45;&gt;[root] var.DiskSize -->
<g id="edge17" class="edge">
<title>[root] oci_core_volume.MesosBootBlock&#45;&gt;[root] var.DiskSize</title>
<path fill="none" stroke="#000000" d="M328.3021,-143.9243C271.402,-131.695 197.2635,-115.7608 144.3632,-104.3912"/>
<polygon fill="#000000" stroke="#000000" points="144.9223,-100.9315 134.4101,-102.252 143.4514,-107.7752 144.9223,-100.9315"/>
</g>
<!-- [root] var.availability_domain -->
<g id="node20" class="node">
<title>[root] var.availability_domain</title>
<ellipse fill="none" stroke="#000000" cx="289.4044" cy="-90" rx="116.4054" ry="18"/>
<text text-anchor="middle" x="289.4044" y="-85.8" font-family="Times,serif" font-size="14.00" fill="#000000">[root] var.availability_domain</text>
</g>
<!-- [root] oci_core_volume.MesosBootBlock&#45;&gt;[root] var.availability_domain -->
<g id="edge18" class="edge">
<title>[root] oci_core_volume.MesosBootBlock&#45;&gt;[root] var.availability_domain</title>
<path fill="none" stroke="#000000" d="M381.3663,-143.8314C365.1245,-134.324 345.0906,-122.5968 327.8722,-112.5177"/>
<polygon fill="#000000" stroke="#000000" points="329.5579,-109.449 319.1596,-107.4177 326.0217,-115.4901 329.5579,-109.449"/>
</g>
<!-- [root] var.compartment_ocid -->
<g id="node21" class="node">
<title>[root] var.compartment_ocid</title>
<ellipse fill="none" stroke="#000000" cx="535.4044" cy="-90" rx="111.5534" ry="18"/>
<text text-anchor="middle" x="535.4044" y="-85.8" font-family="Times,serif" font-size="14.00" fill="#000000">[root] var.compartment_ocid</text>
</g>
<!-- [root] oci_core_volume.MesosBootBlock&#45;&gt;[root] var.compartment_ocid -->
<g id="edge19" class="edge">
<title>[root] oci_core_volume.MesosBootBlock&#45;&gt;[root] var.compartment_ocid</title>
<path fill="none" stroke="#000000" d="M443.4425,-143.8314C459.6842,-134.324 479.7181,-122.5968 496.9366,-112.5177"/>
<polygon fill="#000000" stroke="#000000" points="498.7871,-115.4901 505.6491,-107.4177 495.2508,-109.449 498.7871,-115.4901"/>
</g>
<!-- [root] oci_core_volume_attachment.MesosBootBlockAttach -->
<g id="node4" class="node">
<title>[root] oci_core_volume_attachment.MesosBootBlockAttach</title>
<polygon fill="none" stroke="#000000" points="1514.0501,-324 1194.7587,-324 1194.7587,-288 1514.0501,-288 1514.0501,-324"/>
<text text-anchor="middle" x="1354.4044" y="-301.8" font-family="Times,serif" font-size="14.00" fill="#000000">oci_core_volume_attachment.MesosBootBlockAttach</text>
</g>
<!-- [root] oci_core_volume_attachment.MesosBootBlockAttach&#45;&gt;[root] oci_core_instance.MesosBootInstance -->
<g id="edge20" class="edge">
<title>[root] oci_core_volume_attachment.MesosBootBlockAttach&#45;&gt;[root] oci_core_instance.MesosBootInstance</title>
<path fill="none" stroke="#000000" d="M1277.8337,-287.9243C1234.6061,-277.7198 1180.4506,-264.9355 1135.7204,-254.3762"/>
<polygon fill="#000000" stroke="#000000" points="1136.2787,-250.9119 1125.742,-252.0207 1134.6703,-257.7246 1136.2787,-250.9119"/>
</g>
<!-- [root] var.fingerprint -->
<g id="node23" class="node">
<title>[root] var.fingerprint</title>
<ellipse fill="none" stroke="#000000" cx="338.4044" cy="-18" rx="82.6131" ry="18"/>
<text text-anchor="middle" x="338.4044" y="-13.8" font-family="Times,serif" font-size="14.00" fill="#000000">[root] var.fingerprint</text>
</g>
<!-- [root] provider.oci&#45;&gt;[root] var.fingerprint -->
<g id="edge25" class="edge">
<title>[root] provider.oci&#45;&gt;[root] var.fingerprint</title>
<path fill="none" stroke="#000000" d="M701.0645,-81.2195C687.0469,-78.1325 671.0403,-74.7505 656.4044,-72 556.4435,-53.2144 530.5513,-53.7676 430.4044,-36 423.7291,-34.8157 416.7902,-33.5402 409.8503,-32.2346"/>
<polygon fill="#000000" stroke="#000000" points="410.1902,-28.7366 399.7124,-30.3072 408.8827,-35.6134 410.1902,-28.7366"/>
</g>
<!-- [root] var.private_key_path -->
<g id="node24" class="node">
<title>[root] var.private_key_path</title>
<ellipse fill="none" stroke="#000000" cx="546.4044" cy="-18" rx="106.7251" ry="18"/>
<text text-anchor="middle" x="546.4044" y="-13.8" font-family="Times,serif" font-size="14.00" fill="#000000">[root] var.private_key_path</text>
</g>
<!-- [root] provider.oci&#45;&gt;[root] var.private_key_path -->
<g id="edge26" class="edge">
<title>[root] provider.oci&#45;&gt;[root] var.private_key_path</title>
<path fill="none" stroke="#000000" d="M710.0918,-79.0647C681.0787,-68.2412 635.9798,-51.4167 600.4611,-38.1663"/>
<polygon fill="#000000" stroke="#000000" points="601.3111,-34.7478 590.7184,-34.5317 598.8643,-41.3062 601.3111,-34.7478"/>
</g>
<!-- [root] var.region -->
<g id="node25" class="node">
<title>[root] var.region</title>
<ellipse fill="none" stroke="#000000" cx="739.4044" cy="-18" rx="68.1287" ry="18"/>
<text text-anchor="middle" x="739.4044" y="-13.8" font-family="Times,serif" font-size="14.00" fill="#000000">[root] var.region</text>
</g>
<!-- [root] provider.oci&#45;&gt;[root] var.region -->
<g id="edge27" class="edge">
<title>[root] provider.oci&#45;&gt;[root] var.region</title>
<path fill="none" stroke="#000000" d="M739.4044,-71.8314C739.4044,-64.131 739.4044,-54.9743 739.4044,-46.4166"/>
<polygon fill="#000000" stroke="#000000" points="742.9045,-46.4132 739.4044,-36.4133 735.9045,-46.4133 742.9045,-46.4132"/>
</g>
<!-- [root] var.tenancy_ocid -->
<g id="node26" class="node">
<title>[root] var.tenancy_ocid</title>
<ellipse fill="none" stroke="#000000" cx="918.4044" cy="-18" rx="92.7342" ry="18"/>
<text text-anchor="middle" x="918.4044" y="-13.8" font-family="Times,serif" font-size="14.00" fill="#000000">[root] var.tenancy_ocid</text>
</g>
<!-- [root] provider.oci&#45;&gt;[root] var.tenancy_ocid -->
<g id="edge28" class="edge">
<title>[root] provider.oci&#45;&gt;[root] var.tenancy_ocid</title>
<path fill="none" stroke="#000000" d="M767.3731,-78.75C794.4002,-67.8788 835.9367,-51.1714 868.6144,-38.0272"/>
<polygon fill="#000000" stroke="#000000" points="870.0386,-41.227 878.0101,-34.248 867.4264,-34.7327 870.0386,-41.227"/>
</g>
<!-- [root] var.user_ocid -->
<g id="node27" class="node">
<title>[root] var.user_ocid</title>
<ellipse fill="none" stroke="#000000" cx="1108.4044" cy="-18" rx="79.7058" ry="18"/>
<text text-anchor="middle" x="1108.4044" y="-13.8" font-family="Times,serif" font-size="14.00" fill="#000000">[root] var.user_ocid</text>
</g>
<!-- [root] provider.oci&#45;&gt;[root] var.user_ocid -->
<g id="edge29" class="edge">
<title>[root] provider.oci&#45;&gt;[root] var.user_ocid</title>
<path fill="none" stroke="#000000" d="M781.3292,-82.1045C836.2728,-71.7204 935.6176,-52.8175 1020.4044,-36 1026.5276,-34.7855 1032.8876,-33.5106 1039.2607,-32.224"/>
<polygon fill="#000000" stroke="#000000" points="1040.148,-35.6154 1049.254,-30.1996 1038.7581,-28.7548 1040.148,-35.6154"/>
</g>
<!-- [root] local.ssh_private_key -->
<g id="node7" class="node">
<title>[root] local.ssh_private_key</title>
<ellipse fill="none" stroke="#000000" cx="216.4044" cy="-306" rx="109.1392" ry="18"/>
<text text-anchor="middle" x="216.4044" y="-301.8" font-family="Times,serif" font-size="14.00" fill="#000000">[root] local.ssh_private_key</text>
</g>
<!-- [root] var.ssh_private_key_path -->
<g id="node8" class="node">
<title>[root] var.ssh_private_key_path</title>
<ellipse fill="none" stroke="#000000" cx="155.4044" cy="-234" rx="122.678" ry="18"/>
<text text-anchor="middle" x="155.4044" y="-229.8" font-family="Times,serif" font-size="14.00" fill="#000000">[root] var.ssh_private_key_path</text>
</g>
<!-- [root] local.ssh_private_key&#45;&gt;[root] var.ssh_private_key_path -->
<g id="edge2" class="edge">
<title>[root] local.ssh_private_key&#45;&gt;[root] var.ssh_private_key_path</title>
<path fill="none" stroke="#000000" d="M201.0115,-287.8314C193.8048,-279.3251 185.0927,-269.0419 177.222,-259.752"/>
<polygon fill="#000000" stroke="#000000" points="179.7157,-257.2808 170.581,-251.9134 174.3748,-261.8057 179.7157,-257.2808"/>
</g>
<!-- [root] var.ssh_public_key_path -->
<g id="node10" class="node">
<title>[root] var.ssh_public_key_path</title>
<ellipse fill="none" stroke="#000000" cx="1365.4044" cy="-90" rx="120.2814" ry="18"/>
<text text-anchor="middle" x="1365.4044" y="-85.8" font-family="Times,serif" font-size="14.00" fill="#000000">[root] var.ssh_public_key_path</text>
</g>
<!-- [root] local.ssh_public_key&#45;&gt;[root] var.ssh_public_key_path -->
<g id="edge3" class="edge">
<title>[root] local.ssh_public_key&#45;&gt;[root] var.ssh_public_key_path</title>
<path fill="none" stroke="#000000" d="M1366.152,-143.8314C1366.0451,-136.131 1365.9179,-126.9743 1365.7991,-118.4166"/>
<polygon fill="#000000" stroke="#000000" points="1369.2988,-118.3637 1365.6601,-108.4133 1362.2994,-118.4609 1369.2988,-118.3637"/>
</g>
<!-- [root] meta.count&#45;boundary (count boundary fixup) -->
<g id="node11" class="node">
<title>[root] meta.count&#45;boundary (count boundary fixup)</title>
<ellipse fill="none" stroke="#000000" cx="783.4044" cy="-378" rx="191.6931" ry="18"/>
<text text-anchor="middle" x="783.4044" y="-373.8" font-family="Times,serif" font-size="14.00" fill="#000000">[root] meta.count&#45;boundary (count boundary fixup)</text>
</g>
<!-- [root] meta.count&#45;boundary (count boundary fixup)&#45;&gt;[root] oci_core_volume_attachment.MesosBootBlockAttach -->
<g id="edge5" class="edge">
<title>[root] meta.count&#45;boundary (count boundary fixup)&#45;&gt;[root] oci_core_volume_attachment.MesosBootBlockAttach</title>
<path fill="none" stroke="#000000" d="M897.925,-363.5596C985.1016,-352.5671 1105.9505,-337.3287 1201.4058,-325.2923"/>
<polygon fill="#000000" stroke="#000000" points="1201.9585,-328.7504 1211.442,-324.0268 1201.0827,-321.8054 1201.9585,-328.7504"/>
</g>
<!-- [root] meta.count&#45;boundary (count boundary fixup)&#45;&gt;[root] local.ssh_private_key -->
<g id="edge4" class="edge">
<title>[root] meta.count&#45;boundary (count boundary fixup)&#45;&gt;[root] local.ssh_private_key</title>
<path fill="none" stroke="#000000" d="M669.3455,-363.5163C564.9211,-350.2561 412.0515,-330.8441 313.3799,-318.3143"/>
<polygon fill="#000000" stroke="#000000" points="313.7709,-314.836 303.4097,-317.0483 312.8891,-321.7802 313.7709,-314.836"/>
</g>
<!-- [root] output.BootNodeIP -->
<g id="node12" class="node">
<title>[root] output.BootNodeIP</title>
<ellipse fill="none" stroke="#000000" cx="543.4044" cy="-306" rx="101.4642" ry="18"/>
<text text-anchor="middle" x="543.4044" y="-301.8" font-family="Times,serif" font-size="14.00" fill="#000000">[root] output.BootNodeIP</text>
</g>
<!-- [root] meta.count&#45;boundary (count boundary fixup)&#45;&gt;[root] output.BootNodeIP -->
<g id="edge6" class="edge">
<title>[root] meta.count&#45;boundary (count boundary fixup)&#45;&gt;[root] output.BootNodeIP</title>
<path fill="none" stroke="#000000" d="M725.9184,-360.7542C689.3834,-349.7937 642.1221,-335.6153 604.847,-324.4328"/>
<polygon fill="#000000" stroke="#000000" points="605.6921,-321.0323 595.1081,-321.5111 603.6806,-327.7371 605.6921,-321.0323"/>
</g>
<!-- [root] output.MesosBootBlock -->
<g id="node13" class="node">
<title>[root] output.MesosBootBlock</title>
<ellipse fill="none" stroke="#000000" cx="414.4044" cy="-234" rx="118.8625" ry="18"/>
<text text-anchor="middle" x="414.4044" y="-229.8" font-family="Times,serif" font-size="14.00" fill="#000000">[root] output.MesosBootBlock</text>
</g>
<!-- [root] meta.count&#45;boundary (count boundary fixup)&#45;&gt;[root] output.MesosBootBlock -->
<g id="edge7" class="edge">
<title>[root] meta.count&#45;boundary (count boundary fixup)&#45;&gt;[root] output.MesosBootBlock</title>
<path fill="none" stroke="#000000" d="M651.2351,-364.8807C558.9686,-354.5044 449.5354,-339.2677 433.4044,-324 416.8879,-308.3674 412.8674,-282.2772 412.5514,-262.2012"/>
<polygon fill="#000000" stroke="#000000" points="416.053,-262.1019 412.689,-252.0553 409.0536,-262.0069 416.053,-262.1019"/>
</g>
<!-- [root] output.MesosBootInstance -->
<g id="node14" class="node">
<title>[root] output.MesosBootInstance</title>
<ellipse fill="none" stroke="#000000" cx="1049.4044" cy="-306" rx="127.0387" ry="18"/>
<text text-anchor="middle" x="1049.4044" y="-301.8" font-family="Times,serif" font-size="14.00" fill="#000000">[root] output.MesosBootInstance</text>
</g>
<!-- [root] meta.count&#45;boundary (count boundary fixup)&#45;&gt;[root] output.MesosBootInstance -->
<g id="edge8" class="edge">
<title>[root] meta.count&#45;boundary (count boundary fixup)&#45;&gt;[root] output.MesosBootInstance</title>
<path fill="none" stroke="#000000" d="M846.4427,-360.937C886.836,-350.0035 939.2652,-335.8121 980.7173,-324.592"/>
<polygon fill="#000000" stroke="#000000" points="981.725,-327.9452 990.4632,-321.954 979.8961,-321.1884 981.725,-327.9452"/>
</g>
<!-- [root] var.NumMasterInstances -->
<g id="node15" class="node">
<title>[root] var.NumMasterInstances</title>
<ellipse fill="none" stroke="#000000" cx="783.4044" cy="-306" rx="120.74" ry="18"/>
<text text-anchor="middle" x="783.4044" y="-301.8" font-family="Times,serif" font-size="14.00" fill="#000000">[root] var.NumMasterInstances</text>
</g>
<!-- [root] meta.count&#45;boundary (count boundary fixup)&#45;&gt;[root] var.NumMasterInstances -->
<g id="edge9" class="edge">
<title>[root] meta.count&#45;boundary (count boundary fixup)&#45;&gt;[root] var.NumMasterInstances</title>
<path fill="none" stroke="#000000" d="M783.4044,-359.8314C783.4044,-352.131 783.4044,-342.9743 783.4044,-334.4166"/>
<polygon fill="#000000" stroke="#000000" points="786.9045,-334.4132 783.4044,-324.4133 779.9045,-334.4133 786.9045,-334.4132"/>
</g>
<!-- [root] output.BootNodeIP&#45;&gt;[root] oci_core_instance.MesosBootInstance -->
<g id="edge21" class="edge">
<title>[root] output.BootNodeIP&#45;&gt;[root] oci_core_instance.MesosBootInstance</title>
<path fill="none" stroke="#000000" d="M617.3243,-293.6264C629.3747,-291.6891 641.7307,-289.7507 653.4044,-288 743.537,-274.4826 845.4302,-260.6202 923.2863,-250.3255"/>
<polygon fill="#000000" stroke="#000000" points="924.1685,-253.7395 933.6244,-248.9608 923.2524,-246.7997 924.1685,-253.7395"/>
</g>
<!-- [root] output.MesosBootBlock&#45;&gt;[root] oci_core_volume.MesosBootBlock -->
<g id="edge22" class="edge">
<title>[root] output.MesosBootBlock&#45;&gt;[root] oci_core_volume.MesosBootBlock</title>
<path fill="none" stroke="#000000" d="M413.8997,-215.8314C413.6858,-208.131 413.4315,-198.9743 413.1937,-190.4166"/>
<polygon fill="#000000" stroke="#000000" points="416.6923,-190.3122 412.9159,-180.4133 409.695,-190.5066 416.6923,-190.3122"/>
</g>
<!-- [root] output.MesosBootInstance&#45;&gt;[root] oci_core_instance.MesosBootInstance -->
<g id="edge23" class="edge">
<title>[root] output.MesosBootInstance&#45;&gt;[root] oci_core_instance.MesosBootInstance</title>
<path fill="none" stroke="#000000" d="M1049.4044,-287.8314C1049.4044,-280.131 1049.4044,-270.9743 1049.4044,-262.4166"/>
<polygon fill="#000000" stroke="#000000" points="1052.9045,-262.4132 1049.4044,-252.4133 1045.9045,-262.4133 1052.9045,-262.4132"/>
</g>
<!-- [root] provider.oci (close) -->
<g id="node22" class="node">
<title>[root] provider.oci (close)</title>
<ellipse fill="none" stroke="#000000" cx="1354.4044" cy="-378" rx="101.4292" ry="18"/>
<text text-anchor="middle" x="1354.4044" y="-373.8" font-family="Times,serif" font-size="14.00" fill="#000000">[root] provider.oci (close)</text>
</g>
<!-- [root] provider.oci (close)&#45;&gt;[root] oci_core_volume_attachment.MesosBootBlockAttach -->
<g id="edge24" class="edge">
<title>[root] provider.oci (close)&#45;&gt;[root] oci_core_volume_attachment.MesosBootBlockAttach</title>
<path fill="none" stroke="#000000" d="M1354.4044,-359.8314C1354.4044,-352.131 1354.4044,-342.9743 1354.4044,-334.4166"/>
<polygon fill="#000000" stroke="#000000" points="1357.9045,-334.4132 1354.4044,-324.4133 1350.9045,-334.4133 1357.9045,-334.4132"/>
</g>
<!-- [root] provider.terraform (close) -->
<g id="node28" class="node">
<title>[root] provider.terraform (close)</title>
<ellipse fill="none" stroke="#000000" cx="1600.4044" cy="-378" rx="123.5964" ry="18"/>
<text text-anchor="middle" x="1600.4044" y="-373.8" font-family="Times,serif" font-size="14.00" fill="#000000">[root] provider.terraform (close)</text>
</g>
<!-- [root] provider.terraform (close)&#45;&gt;[root] data.terraform_remote_state.mgtsubnet -->
<g id="edge30" class="edge">
<title>[root] provider.terraform (close)&#45;&gt;[root] data.terraform_remote_state.mgtsubnet</title>
<path fill="none" stroke="#000000" d="M1601.1562,-359.9555C1602.7213,-322.3938 1606.3396,-235.5541 1608.2206,-190.4103"/>
<polygon fill="#000000" stroke="#000000" points="1611.7289,-190.2821 1608.6483,-180.1451 1604.735,-189.9907 1611.7289,-190.2821"/>
</g>
<!-- [root] root -->
<g id="node29" class="node">
<title>[root] root</title>
<ellipse fill="none" stroke="#000000" cx="1354.4044" cy="-450" rx="46.8976" ry="18"/>
<text text-anchor="middle" x="1354.4044" y="-445.8" font-family="Times,serif" font-size="14.00" fill="#000000">[root] root</text>
</g>
<!-- [root] root&#45;&gt;[root] meta.count&#45;boundary (count boundary fixup) -->
<g id="edge31" class="edge">
<title>[root] root&#45;&gt;[root] meta.count&#45;boundary (count boundary fixup)</title>
<path fill="none" stroke="#000000" d="M1309.599,-444.3503C1224.1037,-433.5698 1034.9413,-409.7174 908.2882,-393.7472"/>
<polygon fill="#000000" stroke="#000000" points="908.4986,-390.2461 898.1393,-392.4674 907.6228,-397.1911 908.4986,-390.2461"/>
</g>
<!-- [root] root&#45;&gt;[root] provider.oci (close) -->
<g id="edge32" class="edge">
<title>[root] root&#45;&gt;[root] provider.oci (close)</title>
<path fill="none" stroke="#000000" d="M1354.4044,-431.8314C1354.4044,-424.131 1354.4044,-414.9743 1354.4044,-406.4166"/>
<polygon fill="#000000" stroke="#000000" points="1357.9045,-406.4132 1354.4044,-396.4133 1350.9045,-406.4133 1357.9045,-406.4132"/>
</g>
<!-- [root] root&#45;&gt;[root] provider.terraform (close) -->
<g id="edge33" class="edge">
<title>[root] root&#45;&gt;[root] provider.terraform (close)</title>
<path fill="none" stroke="#000000" d="M1391.7665,-439.0647C1429.8338,-427.9231 1489.627,-410.4226 1535.4621,-397.0075"/>
<polygon fill="#000000" stroke="#000000" points="1536.6979,-400.2927 1545.3121,-394.1246 1534.7315,-393.5746 1536.6979,-400.2927"/>
</g>
</g>
</svg>
